HIERARCHY
ROOT Hips
{
     OFFSET 1.88212 96.90440 -13.34250
     CHANNELS 6 Xposition Yposition Zposition Zrotation Xrotation Yrotation
     JOINT Spine
     {
          OFFSET 0.00000 11.89050 0.00000
          CHANNELS 3 Zrotation Xrotation Yrotation
          JOINT Spine1
          {
               OFFSET -0.00000 25.65740 0.12766
               CHANNELS 3 Zrotation Xrotation Yrotation
               JOINT HEad
               {
                    OFFSET 0.00000 8.73416 0.01134
                    CHANNELS 3 Zrotation Xrotation Yrotation
                    End Site
                    {
                         OFFSET -0.29000 12.77420 2.51395
                    }
               }
               JOINT LeftShoulder1
               {
                    OFFSET 8.99000 -0.36225 -0.22000
                    CHANNELS 3 Zrotation Xrotation Yrotation
                    JOINT LeftArm
                    {
                         OFFSET 10.28270 -0.00338 0.32212
                         CHANNELS 3 Zrotation Xrotation Yrotation
                         JOINT LeftForeArm
                         {
                              OFFSET 32.76690 0.09914 -1.42434
                              CHANNELS 3 Zrotation Xrotation Yrotation
                              JOINT LeftHand
                              {
                                   OFFSET 27.56430 0.08536 1.02216
                                   CHANNELS 3 Zrotation Xrotation Yrotation
                                   End Site
                                   {
                                        OFFSET 16.74430 -0.60000 1.50291
                                   }
                              }
                         }
                    }
               }
               JOINT RightShoulder
               {
                    OFFSET -8.99000 -0.36225 -0.22000
                    CHANNELS 3 Zrotation Xrotation Yrotation
                    JOINT RightArm
                    {
                         OFFSET -10.28270 -0.00338 0.32212
                         CHANNELS 3 Zrotation Xrotation Yrotation
                         JOINT RightForeArm
                         {
                              OFFSET -32.89710 0.09914 -1.42434
                              CHANNELS 3 Zrotation Xrotation Yrotation
                              JOINT RightHand
                              {
                                   OFFSET -27.49210 0.08536 1.02216
                                   CHANNELS 3 Zrotation Xrotation Yrotation
                                   End Site
                                   {
                                        OFFSET -16.63120 -0.60000 1.50291
                                   }
                              }
                         }
                    }
               }
          }
     }
     JOINT LeftUpLeg
     {
          OFFSET 8.94580 -8.66707 0.10165
          CHANNELS 3 Zrotation Xrotation Yrotation
          JOINT LeftLeg
          {
               OFFSET 0.00000 -44.42270 1.37270
               CHANNELS 3 Zrotation Xrotation Yrotation
               JOINT LeftFoot
               {
                    OFFSET -0.25355 -42.09240 -1.46059
                    CHANNELS 3 Zrotation Xrotation Yrotation
                    JOINT LeftToes
                    {
                         OFFSET -0.04000 -4.41509 8.49910
                         CHANNELS 3 Zrotation Xrotation Yrotation
                         End Site
                         {
                              OFFSET 0.08000 -0.04745 9.77979
                         }
                    }
               }
          }
     }
     JOINT RightUpLeg
     {
          OFFSET -8.94580 -8.66707 0.10165
          CHANNELS 3 Zrotation Xrotation Yrotation
          JOINT RightLeg
          {
               OFFSET 0.00000 -44.42270 1.37270
               CHANNELS 3 Zrotation Xrotation Yrotation
               JOINT RightFoot
               {
                    OFFSET 0.25355 -42.09240 -1.46059
                    CHANNELS 3 Zrotation Xrotation Yrotation
                    JOINT RightToes
                    {
                         OFFSET 0.04000 -4.41509 8.49910
                         CHANNELS 3 Zrotation Xrotation Yrotation
                         End Site
                         {
                              OFFSET -0.08000 -0.13745 9.77979
                         }
                    }
               }
          }
     }
}
MOTION
Frames: 13
Frame Time: 0.01667
81.39507 85.18746 -39.53642 -7.79057 8.94431 -137.70966 -0.58849 24.02470 -2.78144 -0.02241 0.05066 0.07028 14.38103 11.63582 -25.99661 -2.69711 12.57990 18.26881 -122.64890 -53.99372 -109.67183 -59.90391 49.04819 -80.70044 13.26583 3.37200 -18.02225 -6.27435 13.82144 33.91034 39.88034 -52.82460 -19.84562 11.40514 -2.67500 65.35216 52.48750 41.65775 29.24891 -8.67929 -26.59537 -21.75724 -9.95609 25.51753 48.55799 -7.55757 0.00426 0.00309 5.64277 -2.81877 -84.42941 -33.17260 16.50547 24.70804 58.63655 32.31157 -37.79385 -18.29342 0.01373 -0.00049 7.69686 -41.75045 6.27448 
81.74316 84.82626 -39.27675 -8.35789 9.28264 -137.22014 -0.79223 26.77317 3.34274 -0.02970 0.04908 0.05553 13.02767 10.77990 -28.32340 -1.66153 11.13487 13.45796 -122.61299 -53.35807 -108.37745 -59.40738 50.07347 -82.40952 14.18259 6.26474 -17.98668 -6.53409 11.59643 29.33084 48.71344 -49.90616 -5.08049 9.65131 0.43176 69.74572 53.17918 39.54375 28.33515 -8.79009 -26.17369 -21.69285 -10.08558 25.39124 48.73574 -8.58444 0.00447 0.00256 6.92341 -2.80669 -84.83218 -33.04027 16.72915 24.82288 59.12978 32.21503 -39.43136 -18.73468 0.01187 0.00031 8.02278 -43.20133 7.08949 
82.14120 84.48905 -38.97116 -9.01709 9.68997 -136.74518 -1.34116 29.45182 10.17046 -0.02829 0.04577 0.04016 12.14209 9.91755 -31.71197 -0.58027 9.79127 8.05635 -122.53785 -52.27550 -107.08049 -59.38952 51.19989 -83.12209 13.04498 3.15970 -17.05530 -13.93462 8.43713 34.60826 59.62208 -54.94078 3.61913 7.75644 4.22663 74.59240 53.03790 36.10780 27.64230 -8.83596 -25.80816 -21.51443 -10.39674 25.41329 48.96011 -9.56535 0.00466 0.00221 8.22623 -2.84543 -85.27328 -32.94184 16.97152 24.87269 59.61763 32.26307 -41.14418 -19.16650 0.01008 0.00118 8.43432 -44.53115 7.98067 
82.59299 84.18563 -38.65054 -9.74798 10.13629 -136.27167 -2.34834 32.06232 17.48657 -0.03023 0.05267 0.03573 11.75762 8.94848 -35.81318 0.48623 8.40061 2.53548 -122.38139 -50.76078 -105.78586 -59.75441 52.35562 -82.92558 13.65314 5.37082 -16.87130 -13.80453 7.60120 28.10228 67.53421 -49.22944 18.50679 5.72188 8.43174 78.77598 52.76759 33.09811 26.57419 -8.82307 -25.49173 -21.24941 -10.84959 25.58016 49.20397 -10.53514 0.00499 0.00196 9.52557 -2.93058 -85.72597 -32.86773 17.23916 24.83869 60.09292 32.43624 -42.87938 -19.60101 0.00865 0.00197 8.92550 -45.68639 8.92779 
83.10256 83.91869 -38.35253 -10.53631 10.58708 -135.78392 -3.89823 34.60566 25.06864 -0.02637 0.06082 0.02627 11.79682 7.75247 -40.23302 1.56341 6.86227 -2.89458 -122.32480 -49.04014 -104.68354 -60.42650 53.39835 -81.93281 13.16575 3.99847 -16.35661 -13.39904 6.96041 21.44205 72.40897 -42.33619 31.26535 4.09732 12.49229 81.91824 52.30819 29.59625 26.22595 -8.76055 -25.21343 -20.92161 -11.40862 25.87804 49.44475 -11.51809 0.00546 0.00177 10.79225 -3.07057 -86.16699 -32.81179 17.53566 24.70187 60.55334 32.71858 -44.60088 -20.05901 0.00766 0.00262 9.49852 -46.69342 9.95478 
83.65916 83.67825 -38.11794 -11.36289 11.00808 -135.27415 -5.26363 36.32747 31.32911 -0.00779 -0.01067 -0.05806 11.88612 7.45793 -43.85147 2.35475 6.16497 -7.07792 -122.38838 -47.33709 -103.86135 -61.32051 54.21590 -80.35698 13.29773 5.68916 -16.33017 -12.75421 7.15340 15.90655 74.17730 -34.64417 41.94735 3.29752 16.10946 84.35228 51.39893 27.09161 26.83424 -8.65410 -24.96720 -20.54800 -12.04408 26.28751 49.66516 -12.52632 0.00597 0.00159 12.00414 -3.27936 -86.59187 -32.77049 17.85818 24.44838 60.99703 33.09747 -46.27619 -20.55455 0.00712 0.00311 10.17672 -47.58260 11.10945 
84.24304 83.44733 -37.97705 -12.20496 11.37435 -134.74564 -6.31023 37.43565 36.18726 0.00212 -0.01056 -0.05843 12.06711 7.70234 -46.72655 3.02121 6.01983 -10.30554 -122.56689 -45.85428 -103.37009 -62.32030 54.73461 -78.45864 12.90828 5.20917 -16.20776 -11.70188 7.79384 11.24702 73.41302 -26.57724 50.93082 3.33764 19.21923 86.63216 50.48876 24.50337 27.80365 -8.50613 -24.75031 -20.13868 -12.73405 26.78893 49.85464 -13.55918 0.00637 0.00135 13.14604 -3.56864 -87.00338 -32.74507 18.20098 24.07717 61.42136 33.56295 -47.86881 -21.07758 0.00699 0.00347 10.98571 -48.40376 12.45238 
84.82738 83.21110 -37.94438 -13.03607 11.67320 -134.21324 -7.01261 38.11160 39.68594 0.00789 -0.00474 -0.05146 12.29428 8.39811 -48.79268 3.59931 6.34566 -12.64382 -122.81472 -44.72136 -103.18917 -63.30181 54.97533 -76.50683 12.72360 6.38724 -16.41507 -10.42778 8.67489 7.74217 70.98321 -18.57389 59.05803 4.17506 21.78633 88.46391 48.13596 21.98124 29.26583 -8.31667 -24.56437 -19.69921 -13.46507 27.36348 50.01111 -14.60441 0.00656 0.00099 14.20913 -3.93820 -87.40637 -32.73983 18.55438 23.60047 61.82267 34.10659 -49.33845 -21.60045 0.00715 0.00373 11.94162 -49.18977 14.02751 
85.38049 82.96196 -38.01955 -13.82579 11.90264 -133.70154 -7.40838 38.49185 41.93909 0.01319 0.00233 -0.04319 12.50926 9.40898 -50.08096 4.07642 7.01154 -14.25255 -123.08302 -44.01865 -103.27390 -64.16537 55.00173 -74.71225 12.43788 6.13588 -16.60424 -9.05911 9.66189 5.33069 67.57314 -10.88349 66.95604 6.17053 23.58179 89.42410 41.34482 14.65416 12.48059 -8.08424 -24.41538 -19.23364 -14.23104 27.99197 50.14231 -15.64176 0.00649 0.00048 15.19030 -4.37826 -87.79799 -32.75931 18.90407 23.03926 62.19593 34.72005 -50.64751 -22.08655 0.00754 0.00390 13.03482 -49.96260 15.83382 
85.86465 82.70109 -38.18511 -14.53907 12.07215 -133.24234 -7.57896 38.66803 43.11246 0.01353 0.01222 -0.03364 12.67451 10.60602 -50.65504 4.50231 7.87095 -15.29122 -123.37955 -43.72555 -103.56102 -64.85352 54.88612 -73.17078 12.30174 6.65394 -17.01151 -7.73268 10.65148 4.08807 64.39458 -6.69808 71.89368 11.73649 25.45005 91.72726 39.12550 14.51290 6.53384 -7.80501 -24.31121 -18.74828 -15.03112 28.65405 50.26768 -16.64664 0.00618 -0.00016 16.09566 -4.87892 -88.16786 -32.80447 19.23240 22.41868 62.53464 35.39513 -51.76799 -22.49437 0.00819 0.00397 14.22379 -50.73043 17.80510 
86.26212 82.44440 -38.40379 -15.15075 12.20235 -132.86888 -8.21682 39.41407 42.75856 0.02299 0.08708 -0.10491 12.34488 11.23168 -49.30985 4.51503 8.01531 -14.62913 -123.60220 -43.72583 -103.87534 -65.38385 54.73982 -71.93734 12.25231 6.18220 -17.39558 -6.71766 10.56929 4.47558 62.00570 -4.67470 74.81736 15.23526 25.58839 92.45451 35.03938 12.85804 -4.60168 -7.47528 -24.25284 -18.24998 -15.86721 29.32611 50.41571 -17.59385 0.00574 -0.00080 16.93902 -5.43551 -88.50251 -32.87524 19.52082 21.76754 62.83293 36.12406 -52.69292 -22.78343 0.00907 0.00401 15.44164 -51.47804 19.82873 
86.57314 82.21674 -38.62485 -15.64496 12.32232 -132.61464 -9.12042 40.54171 40.96612 0.02003 0.07295 -0.10243 11.58275 11.58978 -46.46583 4.20903 7.81359 -12.72021 -123.77110 -43.95483 -104.14719 -65.77872 54.68671 -70.98589 12.27947 6.06304 -17.84051 -5.82847 9.91648 5.69878 64.05940 -5.02841 74.71772 16.59936 25.63943 91.00027 19.00366 14.64733 -6.28335 -7.08733 -24.23631 -17.74343 -16.73569 29.97899 50.61636 -18.46043 0.00528 -0.00124 17.73638 -6.04517 -88.79126 -32.96608 19.74466 21.11481 63.08855 36.89737 -53.43779 -22.92418 0.01010 0.00412 16.60759 -52.15138 21.78063 
86.80669 82.04398 -38.79344 -16.00940 12.46583 -132.51367 -10.08599 41.91082 37.84218 0.01624 0.05677 -0.09481 10.41831 11.72524 -42.28412 3.66937 7.35780 -9.77690 -123.92593 -44.31343 -104.33799 -66.07067 54.80890 -70.23047 12.34470 5.37960 -18.16584 -5.00472 8.87235 7.56012 68.20903 -7.01027 72.68390 16.02188 26.32306 89.32420 37.10276 14.93081 -2.71277 -6.62813 -24.25545 -17.22941 -17.61890 30.57769 50.89199 -19.22733 0.00487 -0.00128 18.50184 -6.69397 -89.02958 -33.06509 19.87138 20.48731 63.30478 37.70219 -54.03212 -22.90421 0.01130 0.00434 17.62953 -52.66441 23.53398 
